<svg id="visual" viewBox="0 0 2500 2500" width="2500" height="2500" xmlns="http://www.w3.org/2000/svg" xmlns:xlink="http://www.w3.org/1999/xlink" version="1.1"><rect x="0" y="0" width="2500" height="2500" fill="#e73213"></rect><defs><linearGradient id="grad1_0" x1="0%" y1="100%" x2="100%" y2="0%"><stop offset="30%" stop-color="#e73213" stop-opacity="1"></stop><stop offset="70%" stop-color="#e73213" stop-opacity="1"></stop></linearGradient></defs><defs><linearGradient id="grad2_0" x1="0%" y1="100%" x2="100%" y2="0%"><stop offset="30%" stop-color="#e73213" stop-opacity="1"></stop><stop offset="70%" stop-color="#e73213" stop-opacity="1"></stop></linearGradient></defs><g transform="translate(2500, 2500)"><path d="M-1502.6 0C-1501 -166 -1499.3 -332 -1429.1 -464.3C-1358.8 -596.6 -1219.8 -695.2 -1114.8 -810C-1009.8 -924.7 -938.7 -1055.7 -830 -1142.3C-721.2 -1229 -574.8 -1271.2 -430.2 -1323.9C-285.5 -1376.5 -142.8 -1439.6 0 -1502.6L0 0Z" fill="#efe6d5"></path></g><g transform="translate(0, 0)"><path d="M1502.6 0C1429.7 139.3 1356.8 278.6 1314.4 427.1C1271.9 575.5 1260 733.1 1193.3 867C1126.6 1000.8 1005.1 1110.9 876.4 1206.2C747.6 1301.6 611.6 1382.1 464.3 1429.1C317.1 1476 158.5 1489.3 0 1502.6L0 0Z" fill="#efe6d5"></path></g></svg>